<svg preserveAspectRatio="none" width="100%" height="100%" overflow="visible" style="display: block;" viewBox="0 0 474 227" fill="none" xmlns="http://www.w3.org/2000/svg">
<g id="Group">
<path id="Vector" d="M473.042 157.198C472.572 165.717 466.483 172.878 458.147 174.733C451.235 176.275 444.166 173.831 439.658 168.644C437.201 170.97 434.105 172.629 430.642 173.309C425.193 174.393 419.64 172.943 415.459 169.546C410.925 174.785 404.575 178.313 397.506 179.306C389 180.508 380.506 177.895 374.195 172.329C371.804 174.864 368.721 176.732 365.219 177.647C359.378 179.189 353.211 177.83 348.585 174.132C344.496 179.724 338.25 183.566 331.142 184.533C325.615 185.278 320.114 184.219 315.384 181.671C312.026 185.408 307.557 188.113 302.487 189.276C295.889 190.805 289.042 189.563 283.463 186.009C279.164 193.901 272.578 200.448 264.412 204.681C253.449 210.365 240.709 211.332 229.107 207.464C223.357 216.31 214.172 222.621 203.483 224.633C191.057 226.972 178.422 223.157 169.406 214.677C157.281 224.202 141.484 228.174 126.013 225.208C110.229 222.177 96.7835 212.273 89.1397 198.461C81.326 202.656 72.3363 204.511 63.2421 203.57C52.2403 202.434 42.2184 197.312 34.8881 189.393C31.4517 193.052 26.7217 195.365 21.5605 195.718C14.1257 196.24 7.00454 192.608 3.0585 186.297C0.000970716 181.397 -0.769944 175.517 0.771886 170.107C3.07156 176.719 8.84689 181.619 15.9158 182.716C22.9586 183.801 29.9229 180.861 34.1042 175.295C37.214 180.547 42.8456 183.919 49.0913 184.102C54.9319 184.258 60.3806 181.593 63.8563 177.111C67.4103 180.953 72.859 182.703 78.1639 181.384C82.5673 180.286 86.056 177.268 87.8722 173.387C98.2339 187.708 116.488 194.528 134.036 189.994C149.193 186.075 160.717 174.485 164.938 160.086C168.844 169.506 177.847 176.301 188.601 176.967C200.687 177.712 211.532 170.499 215.805 159.707C219.607 172.368 230.857 181.501 244.224 182.481C256.507 183.37 268.018 177.176 274.146 166.867C278.458 173.413 285.997 177.255 293.981 176.732C301.716 176.209 308.498 171.688 312.013 165.012C316.573 169.245 322.897 171.166 329.143 170.068C334.866 169.062 339.805 165.665 342.771 160.856C346.926 165.09 353.315 166.54 359.012 164.267C364.474 162.098 368.041 157.002 368.42 151.357C381.421 161.732 399.818 162.124 413.238 152.389C417.34 158.531 424.344 162.228 431.844 162.085C438.168 161.967 444.022 159.132 448.02 154.48C452.11 158.008 457.859 159.145 463.06 157.289C467.019 155.878 470.129 152.938 471.788 149.267C472.755 151.736 473.199 154.428 473.042 157.198Z" fill="var(--fill-0, #DCE8EF)"/>
<path id="Vector_2" d="M471.788 149.267C470.128 152.939 467.019 155.878 463.06 157.29C457.859 159.145 452.11 158.008 448.02 154.48C444.022 159.132 438.168 161.967 431.844 162.085C424.344 162.229 417.34 158.531 413.238 152.39C399.818 162.124 381.421 161.732 368.42 151.357C368.041 157.002 364.474 162.098 359.012 164.267C353.315 166.541 346.926 165.09 342.771 160.857C339.805 165.665 334.866 169.062 329.143 170.069C322.897 171.166 316.573 169.245 312.012 165.012C308.498 171.689 301.716 176.21 293.981 176.732C285.997 177.255 278.458 173.413 274.146 166.867C268.018 177.177 256.507 183.37 244.224 182.482C230.857 181.502 219.607 172.368 215.805 159.707C211.532 170.5 200.687 177.712 188.601 176.968C177.847 176.301 168.844 169.507 164.938 160.086C160.717 174.485 149.193 186.075 134.036 189.995C116.488 194.529 98.2338 187.708 87.8722 173.387C86.056 177.268 82.5673 180.286 78.1639 181.384C72.859 182.704 67.4103 180.953 63.8562 177.111C60.3806 181.593 54.9319 184.259 49.0912 184.102C42.8455 183.919 37.2139 180.548 34.1041 175.295C29.9229 180.861 22.9585 183.801 15.9158 182.717C8.84686 181.619 3.07153 176.719 0.771851 170.108C1.20304 168.527 1.84328 166.998 2.6926 165.534C6.22051 159.433 12.6492 155.617 19.6527 155.46C19.6789 151.122 21.6127 146.889 25.2059 144.027C29.753 140.408 35.8681 139.872 40.8594 142.342C42.5189 139.702 45.1452 137.821 48.1897 137.115C48.8691 136.958 49.5616 136.854 50.2542 136.815C50.0974 135.573 50.0581 134.319 50.1365 133.052C50.4763 127.59 53.0503 122.507 57.2446 119.005C61.2429 115.673 66.3911 114.04 71.5654 114.458C71.0689 108.552 73.1464 102.568 77.5106 98.2036C80.738 94.9631 84.8539 92.977 89.1788 92.3498C95.0848 71.6527 113.521 56.4827 135.591 55.1891C156.327 53.9739 175.312 65.3024 184.42 83.1511C189.515 80.0282 195.853 79.1789 201.785 81.1258C209.389 83.6084 214.812 90.1808 215.949 97.9422C226.14 93.4474 237.783 93.0293 248.379 96.9622C257.839 100.477 265.653 107.141 270.631 115.673C277.622 109.937 287.056 107.611 296.202 109.793C304.669 111.832 311.594 117.424 315.462 124.833C320.48 119.057 327.744 115.516 335.623 115.281C342.666 115.072 349.382 117.542 354.53 121.984C358.79 106.017 373.555 94.6756 390.554 95.1852C406.913 95.6818 420.542 106.997 424.488 122.272C430.328 121.893 436.208 123.343 441.291 126.518C445.564 129.184 448.974 132.921 451.274 137.259C454.214 136.828 457.271 137.089 460.224 138.095C465.673 139.977 469.815 144.145 471.788 149.267Z" fill="var(--fill-0, #F9FBFC)"/>
<path id="Vector_3" d="M203.402 151.948C205.271 154.565 207.369 156.443 209.686 157.687C211.994 158.931 214.463 159.517 216.931 159.492C219.398 159.456 221.851 158.816 224.13 157.522C226.416 156.226 228.473 154.308 230.29 151.651C230.605 154.881 229.168 158.313 226.666 160.756C224.171 163.22 220.595 164.698 216.989 164.718C213.382 164.77 209.777 163.373 207.231 160.965C204.678 158.577 203.166 155.182 203.402 151.948Z" fill="var(--fill-0, #DCE8EF)"/>
<path id="Vector_4" d="M153.081 154.628C154.735 156.472 156.358 157.655 158.031 158.421C159.698 159.182 161.365 159.508 163.033 159.493C164.698 159.465 166.357 159.103 168.006 158.306C169.66 157.503 171.255 156.29 172.875 154.411C173.389 156.865 172.413 159.59 170.542 161.54C168.677 163.509 165.897 164.707 163.09 164.719C160.285 164.761 157.482 163.626 155.574 161.699C153.664 159.789 152.629 157.091 153.081 154.628Z" fill="var(--fill-0, #DCE8EF)"/>
<path id="Vector_5" d="M70.7186 160.381C74.0414 164.469 77.6007 167.58 81.5507 169.734C85.4562 171.924 89.6818 173.101 93.9428 173.41C98.2076 173.661 102.544 173.035 106.71 171.396C110.894 169.766 114.848 167.168 118.68 163.554C117.727 168.778 114.311 173.59 109.684 176.797C105.054 180.028 99.1798 181.615 93.4241 181.231C87.6736 180.837 82.0537 178.508 77.9012 174.679C73.7317 170.904 70.9904 165.675 70.7186 160.381Z" fill="var(--fill-0, #DCE8EF)"/>
<path id="Vector_6" d="M289.077 154.282C292.983 157.815 296.974 160.35 301.205 161.877C305.398 163.448 309.753 163.968 314.013 163.626C318.266 163.224 322.456 161.946 326.325 159.693C330.213 157.445 333.725 154.275 336.963 150.12C336.816 155.429 334.17 160.704 330.086 164.577C326.001 168.474 320.436 170.936 314.69 171.433C308.947 171.917 303.037 170.471 298.352 167.317C293.656 164.224 290.151 159.473 289.077 154.282Z" fill="var(--fill-0, #DCE8EF)"/>
<path id="Vector_7" d="M395.875 2.98544C398.604 5.56343 401.456 7.43715 404.504 8.57262C407.525 9.73944 410.688 10.1367 413.782 9.88711C416.871 9.59703 419.913 8.64972 422.694 6.9916C425.487 5.3387 427.985 3.01157 430.23 -0.000228882C430.046 3.77856 428.127 7.5103 425.201 10.2477C422.277 13.0021 418.319 14.7386 414.234 15.0927C410.151 15.4364 405.952 14.4224 402.603 12.1998C399.243 10.0191 396.718 6.66623 395.875 2.98544Z" fill="var(--fill-0, #DCE8EF)"/>
</g>
</svg>
