<svg preserveAspectRatio="none" width="100%" height="100%" overflow="visible" style="display: block;" viewBox="0 0 153 73" fill="none" xmlns="http://www.w3.org/2000/svg">
<g id="Group">
<path id="Vector" d="M151.05 62.376C148.135 68.3222 142.116 72.1364 135.488 72.2089C130.63 72.267 126.047 70.3236 122.755 66.9444C119.84 70.5846 115.17 72.557 110.369 71.9479C106.091 71.4113 102.407 68.9168 100.29 65.3636C92.8497 68.9458 84.1335 69.2649 76.3164 66.0452C75.7218 65.7987 75.1417 65.5376 74.5761 65.2621C69.0069 68.9603 62.4371 71.1212 55.5048 71.3098C43.1628 71.6433 31.5895 65.6682 24.6861 55.6321C21.0894 59.0258 15.9554 60.4616 11.0099 59.1998C4.78815 57.619 0.335763 52.166 0.016699 45.7557C-0.0848212 43.6238 0.277747 41.5498 1.0319 39.6644C1.85856 43.1451 4.30956 46.0892 7.74674 47.496C11.6045 49.0768 15.9554 48.3952 19.117 45.8717C22.5832 49.1783 27.1081 51.1943 31.9231 51.5278C36.448 51.8469 40.9149 50.6722 44.6566 48.2212C50.7043 52.7751 58.5359 54.4284 65.9903 52.63C72.5166 51.0492 78.0858 46.9884 81.5665 41.4193C83.9739 45.9152 88.6003 48.8738 93.7924 49.0913C97.4761 49.2509 100.986 47.9891 103.698 45.7122C104.525 49.0623 107.106 51.8324 110.601 52.7461C113.473 53.5002 116.446 52.8766 118.708 51.1943C120.304 53.3117 122.566 54.8635 125.162 55.5741C128.324 56.4443 131.688 55.9947 134.517 54.3269C137.345 52.6735 139.375 49.947 140.144 46.7564C140.927 43.5802 140.39 40.2156 138.65 37.4455C142.798 38.2432 146.597 40.5491 149.251 44.0443C153.254 49.3234 153.95 56.4153 151.05 62.376Z" fill="var(--fill-0, #DCE8EF)"/>
<path id="Vector_2" d="M140.144 46.7561C139.375 49.9467 137.345 52.6733 134.517 54.3266C131.688 55.9944 128.324 56.444 125.162 55.5739C122.566 54.8632 120.304 53.3114 118.708 51.194C116.446 52.8763 113.473 53.5 110.601 52.7458C107.106 51.8321 104.525 49.0621 103.698 45.7119C100.986 47.9889 97.4761 49.2506 93.7924 49.0911C88.6004 48.8735 83.9739 45.915 81.5665 41.4191C78.0858 46.9882 72.5167 51.049 65.9903 52.6298C58.5359 54.4281 50.7043 52.7748 44.6566 48.2209C40.9149 50.6719 36.448 51.8466 31.9231 51.5276C27.1081 51.194 22.5832 49.1781 19.117 45.8714C15.9554 48.3949 11.6045 49.0766 7.74674 47.4958C4.30956 46.089 1.85856 43.1449 1.0319 39.6642C2.5402 35.8499 5.61482 32.7463 9.64662 31.296C12.3587 30.3243 15.2012 30.1938 17.8698 30.8029C18.2033 29.6137 18.7109 28.468 19.3926 27.4238C21.2054 24.6102 24.0625 22.6233 27.3546 21.9417C30.2987 21.3325 33.3589 21.8111 35.9549 23.2469C38.3333 16.9817 43.0903 11.7606 49.37 8.84555C56.3024 5.6114 64.2065 5.62592 71.0229 8.65702C75.0257 2.59482 82.2771 -0.900385 89.8621 0.201835C97.8967 1.36207 104.118 7.36625 105.859 14.9223C113.386 12.6453 121.623 13.9506 128.121 18.635C134.299 23.0729 138.099 30.0053 138.65 37.4453C140.39 40.2153 140.927 43.58 140.144 46.7561Z" fill="var(--fill-0, #F9FBFC)"/>
<path id="Vector_3" d="M34.596 42.2427C36.0781 44.1614 37.6648 45.4899 39.3776 46.3644C41.0831 47.2375 42.8669 47.6378 44.6522 47.6204C46.4361 47.5928 48.2098 47.1534 49.8936 46.244C51.5832 45.3318 53.1408 43.9729 54.5867 42.0237C54.916 44.45 53.8746 47.0693 52.0052 48.9358C50.1416 50.8197 47.4325 51.9553 44.7001 51.9698C41.9678 52.0104 39.2383 50.9357 37.3341 49.0924C35.424 47.265 34.3276 44.6748 34.596 42.2427Z" fill="var(--fill-0, #DCE8EF)"/>
<path id="Vector_4" d="M112.701 45.1213C114.185 47.04 115.77 48.3685 117.483 49.243C119.188 50.1161 120.972 50.5164 122.758 50.499C124.541 50.4714 126.315 50.032 127.999 49.1227C129.688 48.2104 131.246 46.8515 132.692 44.9023C133.02 47.3287 131.98 49.9479 130.111 51.8144C128.247 53.6983 125.538 54.8339 122.805 54.8484C120.073 54.889 117.344 53.8144 115.439 51.971C113.529 50.1437 112.431 47.552 112.701 45.1213Z" fill="var(--fill-0, #DCE8EF)"/>
<path id="Vector_5" d="M99.6269 33.4061C98.445 36.7273 95.8968 39.535 92.7714 41.4363C89.6344 43.3391 85.8753 44.321 82.1394 44.2238C78.4034 44.1411 74.6965 42.9678 71.6581 40.9099C68.6314 38.8534 66.2268 35.918 65.2217 32.5359C68.1615 34.4445 70.917 35.8861 73.7538 36.8578C76.576 37.8353 79.423 38.3443 82.2844 38.4255C85.1472 38.4981 88.0188 38.1326 90.8875 37.2987C93.775 36.472 96.6002 35.1682 99.6269 33.4061Z" fill="var(--fill-0, #DCE8EF)"/>
</g>
</svg>
