<svg preserveAspectRatio="none" width="100%" height="100%" overflow="visible" style="display: block;" viewBox="0 0 271 182" fill="none" xmlns="http://www.w3.org/2000/svg">
<g id="Group">
<path id="Vector" d="M265.931 130.95C260.995 138.443 252.85 143.221 243.912 143.891C238.764 144.261 233.669 143.256 229.156 141.052C227.71 143.45 225.912 145.689 223.761 147.664C216.85 154.01 207.682 156.531 198.973 155.174C198.656 156.567 198.233 157.942 197.721 159.299C194.301 168.361 187.144 175.536 178.082 178.992C169.02 182.447 158.901 181.848 150.315 177.352C142.928 173.474 137.251 167.039 134.342 159.299C109.607 163.76 84.2733 151.489 72.761 128.412C63.7697 133.295 53.1566 134.829 42.8783 132.431C29.6207 129.311 18.7783 120.108 13.5246 107.802C11.0035 107.291 8.58824 106.181 6.50792 104.559C2.47068 101.403 0.0906462 96.6075 0.00249685 91.4948C-0.0856525 86.3822 2.13571 81.4987 6.04954 78.2019C9.1524 75.6103 13.0662 74.2176 17.0506 74.2352C12.2024 79.5065 12.1318 87.581 16.8919 92.9229C18.3552 94.5624 20.1182 95.7789 22.0398 96.537C23.3621 107.785 31.0663 117.446 42.0321 121.095C52.469 124.551 63.7697 121.889 71.5445 114.555C77.4681 120.76 85.3839 124.815 94.005 125.979C101.815 127.037 109.696 125.662 116.624 122.118C117.594 130.616 123.359 137.967 131.645 140.806C139.49 143.503 148.058 141.617 154.035 136.169C162.162 142.322 172.828 144.349 182.807 141.387C192.098 138.637 199.52 131.92 203.275 123.264C210.397 127.513 219.142 128.341 227.022 125.344C231.712 123.581 235.731 120.584 238.746 116.811C245.463 119.209 252.991 117.129 257.54 111.575C262.247 105.828 262.67 97.7182 258.615 91.5125C263.463 94.9679 267.166 99.869 269.14 105.634C272.067 114.114 270.868 123.475 265.931 130.95Z" fill="var(--fill-0, #DCE8EF)"/>
<path id="Vector_2" d="M257.54 111.575C252.991 117.129 245.463 119.209 238.746 116.811C235.731 120.584 231.712 123.581 227.022 125.344C219.142 128.341 210.397 127.513 203.275 123.264C199.52 131.92 192.098 138.637 182.807 141.387C172.828 144.349 162.162 142.322 154.035 136.169C148.058 141.617 139.49 143.503 131.645 140.806C123.359 137.967 117.594 130.616 116.624 122.118C109.696 125.662 101.815 127.037 94.005 125.979C85.384 124.815 77.4682 120.761 71.5445 114.555C63.7697 121.889 52.469 124.551 42.0321 121.095C31.0663 117.446 23.3621 107.785 22.0398 96.5371C20.1182 95.779 18.3552 94.5625 16.8919 92.923C12.1319 87.5811 12.2024 79.5066 17.0506 74.2353C20.1534 66.9718 26.5002 61.3831 34.416 59.3733C39.3171 58.1392 44.3593 58.3861 48.943 59.9375C54.5141 48.1255 65.1625 39.2576 78.1733 36.0314C84.3791 34.4976 90.6906 34.3565 96.7552 35.5025C104.53 13.712 125.721 -0.956087 149.451 0.048815C169.99 0.895049 187.655 13.2888 195.888 31.1303C203.046 29.9667 210.468 31.2537 216.903 34.956C223.532 38.764 228.486 44.7582 231.042 51.7925C241.955 51.4575 252.374 57.3811 257.54 67.4125C261.506 75.0992 261.718 83.8965 258.615 91.5126C262.67 97.7183 262.247 105.828 257.54 111.575Z" fill="var(--fill-0, #F9FBFC)"/>
<path id="Vector_3" d="M225.522 107.389C227.682 109.615 229.709 110.974 231.749 111.845C233.782 112.711 235.76 113.06 237.736 113.044C239.712 113.007 241.678 112.616 243.69 111.706C245.707 110.791 247.704 109.393 249.821 107.121C250.581 110.169 249.421 113.605 247.11 116.07C244.807 118.557 241.325 120.079 237.812 120.093C234.298 120.146 230.788 118.703 228.433 116.267C226.074 113.855 224.84 110.449 225.522 107.389Z" fill="var(--fill-0, #DCE8EF)"/>
<path id="Vector_4" d="M95.2814 104.474C93.8446 108.511 90.747 111.925 86.9478 114.236C83.1345 116.549 78.5648 117.742 74.0251 117.624C69.4837 117.524 64.9775 116.098 61.284 113.596C57.6047 111.096 54.6816 107.528 53.4599 103.416C57.0335 105.737 60.3831 107.489 63.8315 108.67C67.2623 109.858 70.7231 110.477 74.2014 110.576C77.6816 110.664 81.1723 110.22 84.6595 109.206C88.1678 108.201 91.6021 106.618 95.2814 104.474Z" fill="var(--fill-0, #DCE8EF)"/>
<path id="Vector_5" d="M132.6 120.624C135.913 126.127 140.146 129.75 144.747 131.687C149.329 133.628 154.176 133.919 158.613 132.706C163.049 131.513 167.105 128.847 170.081 124.861C173.084 120.882 174.949 115.63 175.055 109.206C179.224 114.189 180.158 122.029 177.442 128.734C176.149 132.121 173.921 135.181 171.162 137.667C168.364 140.112 164.988 141.949 161.36 142.916C154.11 144.94 145.995 143.233 140.341 138.704C134.626 134.263 131.521 127.021 132.6 120.624Z" fill="var(--fill-0, #DCE8EF)"/>
</g>
</svg>
