<svg preserveAspectRatio="none" width="100%" height="100%" overflow="visible" style="display: block;" viewBox="0 0 204 104" fill="none" xmlns="http://www.w3.org/2000/svg">
<g id="Group">
<path id="Vector" d="M203.364 60.0106C203.323 64.9803 201.314 69.7428 197.753 73.2216C195.495 75.4165 192.762 76.9902 189.801 77.8185C186.177 89.6835 175.886 98.629 163.193 100.203C151.514 101.652 140.291 96.579 133.582 87.4886C127.908 92.6654 119.853 94.5497 112.399 92.2512C106.497 99.7678 97.2413 104.199 87.3848 103.826C76.8243 103.454 67.4027 97.6143 62.2673 88.7103C56.2416 92.2098 48.9528 92.9138 42.3059 90.5326C36.2595 88.379 31.4348 83.927 28.7636 78.2327C24.6636 79.3715 20.1702 78.8746 16.298 76.6175C11.2041 73.6357 8.22235 68.1898 8.26377 62.4954C9.81678 67.7964 14.1238 71.8549 19.5283 73.0559C24.2495 74.1327 29.1363 72.8696 32.76 69.7635C37.564 77.2594 46.4266 81.2558 55.3512 79.7649C63.4891 78.3983 70.0738 72.7453 72.7865 65.1666C78.3359 75.9549 91.0499 81.4422 102.936 77.57C112.274 74.5261 118.632 66.5332 120.019 57.4429C122.835 61.8742 127.018 65.3737 132.029 67.3615C138.738 70.012 146.172 69.6807 152.529 66.5747C155.945 72.2691 162.737 75.1888 169.343 73.5322C174.561 72.2277 178.537 68.314 180.11 63.4686C184.852 66.3676 191.023 66.2227 195.682 62.7646C199.368 60.0313 201.356 55.7864 201.335 51.4793C202.66 54.1091 203.385 57.0288 203.364 60.0106Z" fill="var(--fill-0, #DCE8EF)"/>
<path id="Vector_2" d="M201.335 51.4798C201.356 55.7868 199.368 60.0318 195.682 62.7651C191.023 66.2231 184.852 66.3681 180.11 63.4691C178.537 68.3145 174.561 72.2281 169.343 73.5327C162.737 75.1892 155.945 72.2695 152.529 66.5751C146.172 69.6812 138.738 70.0125 132.029 67.362C127.018 65.3741 122.835 61.8747 120.019 57.4434C118.631 66.5337 112.274 74.5266 102.936 77.5705C91.0499 81.4427 78.3359 75.9554 72.7864 65.1671C70.0738 72.7458 63.489 78.3988 55.3512 79.7654C46.4265 81.2563 37.564 77.2599 32.76 69.764C29.1363 72.87 24.2494 74.1332 19.5283 73.0564C14.1238 71.8554 9.81674 67.7968 8.26372 62.4959C6.58647 61.7297 5.07486 60.6116 3.79104 59.2242C0.29157 55.4348 -0.888722 50.051 0.685001 45.1642C2.25873 40.2567 6.33798 36.5709 11.3698 35.4941C14.8278 34.7694 18.348 35.3492 21.3298 37.0264C22.0338 32.4502 24.5393 28.1846 28.4736 25.327C33.816 21.4341 40.7528 20.875 46.5301 23.5669C48.6215 20.6058 51.5618 18.2245 55.0613 16.7957C61.0456 14.3523 67.8168 15.0357 73.1591 18.5558C79.1641 7.43624 90.8221 0.147426 103.888 0.00247809C116.851 -0.14247 128.591 6.75291 134.907 17.5826C139.131 14.6215 144.494 13.4412 149.733 14.4766C155.158 15.574 159.755 18.8872 162.489 23.4841C169.405 20.8543 177.377 22.2831 182.947 27.522C187.006 31.332 189.159 36.5501 189.18 41.8511C192.452 42.638 195.454 44.3152 197.877 46.738C199.285 48.146 200.444 49.7404 201.335 51.4798Z" fill="var(--fill-0, #F9FBFC)"/>
<path id="Vector_3" d="M138.595 57.6957C140.711 60.4352 142.977 62.332 145.422 63.5806C147.857 64.8272 150.406 65.3987 152.953 65.3738C155.5 65.3345 158.033 64.707 160.437 63.4087C162.849 62.1063 165.073 60.166 167.137 57.383C167.605 60.8473 166.121 64.5848 163.452 67.2519C160.791 69.9417 156.923 71.5631 153.022 71.5838C149.12 71.6418 145.223 70.1074 142.505 67.4755C139.777 64.8685 138.212 61.1682 138.595 57.6957Z" fill="var(--fill-0, #DCE8EF)"/>
<path id="Vector_4" d="M100.668 57.8944C98.9806 62.6363 95.3424 66.6451 90.8801 69.3598C86.4012 72.0765 81.0339 73.4784 75.7019 73.3397C70.3678 73.2216 65.0751 71.5464 60.7391 68.6081C56.4155 65.6719 52.9844 61.4808 51.5494 56.652C55.7467 59.377 59.681 61.4353 63.7313 62.8227C67.7608 64.2183 71.8256 64.9451 75.9111 65.0611C79.9965 65.1646 84.0986 64.6428 88.1944 63.4521C92.3109 62.2718 96.3467 60.4103 100.668 57.8944Z" fill="var(--fill-0, #DCE8EF)"/>
</g>
</svg>
