<svg preserveAspectRatio="none" width="100%" height="100%" overflow="visible" style="display: block;" viewBox="0 0 18 18" fill="none" xmlns="http://www.w3.org/2000/svg">
<g id="Frame">
<path id="Vector" d="M15.5806 11.2706L12.259 9.78207C12.1085 9.71758 11.9443 9.69166 11.7812 9.70664C11.6182 9.72161 11.4615 9.77703 11.3252 9.86785C11.3114 9.87673 11.2983 9.88659 11.2859 9.89738L9.54985 11.3739C9.53184 11.3838 9.51179 11.3893 9.49129 11.39C9.47078 11.3907 9.45039 11.3867 9.43173 11.3782C8.31587 10.8396 7.15993 9.69066 6.61923 8.59027C6.61022 8.57189 6.60554 8.55168 6.60554 8.53121C6.60554 8.51074 6.61022 8.49053 6.61923 8.47215L8.10071 6.71433C8.11134 6.70133 8.1212 6.68771 8.13024 6.67355C8.21981 6.5368 8.27391 6.37989 8.28766 6.21699C8.30141 6.0541 8.27437 5.89034 8.20899 5.74051L6.73102 2.42457C6.64709 2.22883 6.50194 2.06558 6.31735 1.95934C6.13276 1.8531 5.91869 1.8096 5.70727 1.83535C4.78845 1.95614 3.94504 2.40737 3.33466 3.1047C2.72429 3.80204 2.38871 4.69776 2.39063 5.62449C2.39063 11.13 6.86954 15.6089 12.375 15.6089C13.3017 15.6106 14.1973 15.275 14.8946 14.6647C15.5919 14.0543 16.0432 13.211 16.1641 12.2922C16.1899 12.0818 16.1469 11.8687 16.0418 11.6846C15.9366 11.5005 15.7749 11.3553 15.5806 11.2706ZM12.375 14.7651C7.33501 14.7651 3.23438 10.6645 3.23438 5.62449C3.23203 4.90304 3.49243 4.2054 3.96693 3.66194C4.44143 3.11847 5.09756 2.76635 5.81274 2.67137H5.82891C5.85725 2.67189 5.88476 2.68097 5.90785 2.69741C5.93094 2.71385 5.94852 2.73687 5.95829 2.76348L7.44188 6.0759C7.45034 6.09431 7.45473 6.11434 7.45473 6.13461C7.45473 6.15487 7.45034 6.1749 7.44188 6.19332L5.95759 7.95535C5.94651 7.96793 5.93641 7.98133 5.92735 7.99543C5.83447 8.13722 5.77978 8.30059 5.76857 8.46972C5.75736 8.63885 5.79001 8.80801 5.86337 8.96082C6.48704 10.2377 7.77376 11.5146 9.0647 12.1382C9.2184 12.2112 9.38838 12.2431 9.55807 12.2307C9.72775 12.2184 9.89135 12.1623 10.0329 12.0679C10.0463 12.0588 10.0596 12.0489 10.0723 12.0384L11.8076 10.5618C11.8247 10.5526 11.8437 10.5472 11.8631 10.546C11.8825 10.5448 11.9019 10.5478 11.9201 10.5548L15.2424 12.0433C15.2695 12.0549 15.2923 12.0747 15.3076 12.0999C15.3228 12.1251 15.3298 12.1545 15.3274 12.1839C15.2329 12.8995 14.8812 13.5561 14.3378 14.0311C13.7945 14.5061 13.0967 14.7671 12.375 14.7651Z" fill="var(--fill-0, #0075FC)"/>
</g>
</svg>
