<svg preserveAspectRatio="none" width="100%" height="100%" overflow="visible" style="display: block;" viewBox="0 0 20 14" fill="none" xmlns="http://www.w3.org/2000/svg">
<g id="Group">
<path id="Vector" d="M19.9994 0H14.2852V14H19.9994V0Z" fill="var(--fill-0, #FF3131)"/>
<path id="Vector_2" fill-rule="evenodd" clip-rule="evenodd" d="M0 14H5.71429V0H0V14Z" fill="var(--fill-0, #FF3131)"/>
<path id="Vector_3" fill-rule="evenodd" clip-rule="evenodd" d="M11.5078 6.45611C11.3412 6.61935 11.0598 6.47174 11.106 6.24536L11.4279 4.66771L10.4755 5.13437L9.99932 3.73438L9.52318 5.13437L8.57075 4.66771L8.89275 6.24536C8.93897 6.47174 8.65747 6.61935 8.49089 6.45611L8.26297 6.2327C8.16997 6.14158 8.01918 6.14158 7.92625 6.2327L7.61839 6.53437L6.66602 6.06771L7.14218 7.00102L6.83438 7.30272C6.74139 7.39386 6.74139 7.54156 6.83438 7.6327L8.09461 8.86771H9.52318L9.76125 10.2677H10.2375L10.4755 8.86771H11.9041L13.1643 7.6327C13.2573 7.54156 13.2573 7.39386 13.1643 7.30272L12.8565 7.00102L13.3327 6.06771L12.3803 6.53437L12.0725 6.2327C11.9795 6.14158 11.8288 6.14158 11.7358 6.2327L11.5078 6.45611Z" fill="var(--fill-0, #FF3131)"/>
</g>
</svg>
